IDResults
version=1
nRows=15
nColumns=15
inDegrees=yes

Units are S.I. units (second, meters, Newtons, ...)
If the header above contains a line with 'inDegrees', this indicates whether rotational values are in degrees (yes) or radians (no).

endheader
time	pelvis_tilt	pelvis_list	pelvis_rotation	pelvis_tx	pelvis_ty	pelvis_tz	hip_flexion_r	hip_adduction_r	hip_rotation_r	knee_angle_r	knee_angle_r_beta	ankle_angle_r	subtalar_angle_r	mtp_angle_r
      0.40000000	    -20.78834821	      7.71435335	    -30.45469635	     -0.10564953	      0.93460546	      0.02890433	     10.55666650	     -8.16411263	    -24.25252809	     24.66236219	      0.43043942	     -0.63463261	     31.53746620	    -28.47982899
      0.40500000	    -20.28292066	      7.37857837	    -30.27373995	     -0.09508352	      0.93601865	      0.03103526	      9.38020247	     -9.02117500	    -24.89392045	     26.43971411	      0.46146006	     -2.04652601	     28.67547395	    -28.30135482
      0.41000000	    -19.42599392	      6.97134959	    -30.36045998	     -0.08523046	      0.93805425	      0.03335399	      7.88334256	     -9.85280040	    -24.75647701	     28.14844718	      0.49128308	     -3.19969646	     25.43147465	    -28.40852948
      0.41500000	    -18.58614294	      6.52314512	    -30.46518352	     -0.07335039	      0.93880486	      0.03595218	      6.20039730	    -10.87238692	    -24.96799297	     29.96187240	      0.52293332	     -4.24615957	     23.69920574	    -28.15793148
      0.42000000	    -18.06646347	      5.85950080	    -30.33941601	     -0.06332091	      0.93973743	      0.03814600	      4.72310852	    -11.24370186	    -24.64315055	     31.69000138	      0.55309486	     -5.45973000	     21.15561420	    -28.07473947
      0.42500000	    -17.28015804	      5.45401052	    -30.29154435	     -0.05255686	      0.94035330	      0.04051613	      3.24049281	    -12.27541623	    -24.60178486	     33.78338993	      0.58963139	     -6.43480638	     19.96288709	    -27.87575635
      0.43000000	    -16.56254460	      4.87307765	    -30.38331925	     -0.04250498	      0.94087281	      0.04299133	      1.73053361	    -12.95508630	    -24.15235912	     35.80059212	      0.62483821	     -7.20453634	     18.62735157	    -27.81766334
      0.43500000	    -16.15116666	      4.38109630	    -30.45504301	     -0.03189252	      0.94085988	      0.04538609	      0.54523863	    -13.53404474	    -23.46948713	     37.78131190	      0.65940829	     -8.35342283	     17.88331205	    -27.72172728
      0.44000000	    -15.78071973	      4.06145164	    -30.49839590	     -0.02221987	      0.94079151	      0.04776098	     -0.36089034	    -14.16845921	    -22.53701276	     39.94181155	      0.69711612	     -9.08806430	     16.72733205	    -27.82728201
      0.44500000	    -15.66818700	      3.46722670	    -30.34262938	     -0.01249425	      0.94004462	      0.04978041	     -1.18393002	    -14.37581141	    -21.72437910	     42.21432780	      0.73677901	     -9.48194888	     15.63161233	    -28.08607871
      0.45000000	    -15.47048074	      3.03510593	    -30.51168340	     -0.00283786	      0.93954104	      0.05256884	     -1.90544405	    -14.60737268	    -20.23520464	     44.23893934	      0.77211515	    -11.50002628	     15.35788618	    -27.66102903
      0.45500000	    -15.15839656	      2.53394444	    -30.63756624	      0.00719962	      0.93883299	      0.05507750	     -2.80140837	    -14.91369188	    -18.90647158	     46.24388676	      0.80710808	    -12.84363042	     15.11120925	    -27.50394578
      0.46000000	    -15.08515265	      1.92282753	    -30.27034795	      0.01654555	      0.93784366	      0.05728186	     -3.67499532	    -14.75648248	    -17.86060220	     48.11242650	      0.83972025	    -14.11289070	     14.08694370	    -27.61286632
      0.46500000	    -15.55985387	      0.89500775	    -29.78856408	      0.02516530	      0.93582095	      0.05948348	     -4.16995103	    -13.65008975	    -16.53992246	     50.00989265	      0.87283729	    -15.72257112	     12.77935381	    -27.55544804
      0.47000000	    -15.11309137	      0.35101019	    -29.69615094	      0.03556441	      0.93453581	      0.06229544	     -5.39352570	    -13.80371180	    -15.40219599	     51.63196311	      0.90114776	    -17.44416493	     12.30215569	    -27.43078611
